HIERARCHY
ROOT Hips
{
	OFFSET 0.0000 0.0000 0.0000
	CHANNELS 6 Xposition Yposition Zposition Zrotation Xrotation Yrotation
	JOINT Ab
	{
		OFFSET -0.0000 8.1305 -0.0000
		CHANNELS 3 Zrotation Xrotation Yrotation
		JOINT Chest
		{
			OFFSET -0.0000 26.2902 -0.0000
			CHANNELS 3 Zrotation Xrotation Yrotation
			JOINT Neck
			{
				OFFSET -0.0000 26.2902 0.0000
				CHANNELS 3 Zrotation Xrotation Yrotation
				JOINT Head
				{
					OFFSET -0.0000 10.8167 0.0000
					CHANNELS 3 Zrotation Xrotation Yrotation
					End Site
					{
						OFFSET -0.0000 16.7167 0.0000
					}
				}
			}
			JOINT LeftCollar
			{
				OFFSET -0.0000 26.2902 0.0000
				CHANNELS 3 Zrotation Xrotation Yrotation
				JOINT LeftShoulder
				{
					OFFSET 19.6667 -0.0000 0.0000
					CHANNELS 3 Zrotation Xrotation Yrotation
					JOINT LeftElbow
					{
						OFFSET 27.2190 0.0000 0.0000
						CHANNELS 3 Zrotation Xrotation Yrotation
						JOINT LeftWrist
						{
							OFFSET 30.7431 0.0000 0.0000
							CHANNELS 3 Zrotation Xrotation Yrotation
							End Site
							{
								OFFSET 0.0000 -14.7500 0.0000
							}
						}
					}
				}
			}
			JOINT RightCollar
			{
				OFFSET -0.0000 26.2902 0.0000
				CHANNELS 3 Zrotation Xrotation Yrotation
				JOINT RightShoulder
				{
					OFFSET -19.6667 0.0000 0.0000
					CHANNELS 3 Zrotation Xrotation Yrotation
					JOINT RightElbow
					{
						OFFSET -27.2190 0.0000 0.0000
						CHANNELS 3 Zrotation Xrotation Yrotation
						JOINT RightWrist
						{
							OFFSET -30.7431 0.0000 0.0000
							CHANNELS 3 Zrotation Xrotation Yrotation
							End Site
							{
								OFFSET -0.0000 -14.7500 0.0000
							}
						}
					}
				}
			}
		}
	}
	JOINT LeftHip
	{
		OFFSET 11.8000 0.0000 0.0000
		CHANNELS 3 Zrotation Xrotation Yrotation
		JOINT LeftKnee
		{
			OFFSET -0.0000 -39.7832 0.0000
			CHANNELS 3 Zrotation Xrotation Yrotation
			JOINT LeftAnkle
			{
				OFFSET -0.0000 -41.7317 0.0000
				CHANNELS 3 Zrotation Xrotation Yrotation
				End Site
				{
					OFFSET -0.0000 -4.9167 16.7167
				}
			}
		}
	}
	JOINT RightHip
	{
		OFFSET -11.8000 0.0000 0.0000
		CHANNELS 3 Zrotation Xrotation Yrotation
		JOINT RightKnee
		{
			OFFSET -0.0000 -39.7832 0.0000
			CHANNELS 3 Zrotation Xrotation Yrotation
			JOINT RightAnkle
			{
				OFFSET -0.0000 -41.7317 0.0000
				CHANNELS 3 Zrotation Xrotation Yrotation
				End Site
				{
					OFFSET -0.0000 -4.9167 16.7167
				}
			}
		}
	}
}
MOTION
Frames: 19
Frame Time: 0.010000
-17.6667 96.8660 173.6937 358.4253 357.1365 181.1928 357.2522 347.9870 0.0138 3.0358 10.7241 0.0140 357.3250 359.4141 359.9589 359.7532 5.0447 359.9760 339.8604 357.3962 14.6128 319.0530 59.9347 338.5650 9.4892 357.1732 326.7564 89.4608 356.6916 347.4559 26.5218 355.8150 342.4769 45.6493 48.5605 4.9368 340.8290 354.5932 31.2063 270.6304 354.4695 10.9140 356.7280 2.7152 358.7808 357.9245 6.1484 4.7114 352.9080 351.8676 13.0270 358.1282 5.4059 11.8745 6.0821 6.1136 12.3174 348.9019 344.5265 310.8267 
-17.6877 96.8641 173.6845 358.4235 357.1137 181.1931 357.2445 347.9907 0.0121 3.0188 10.7413 0.0126 357.3406 359.4204 359.9539 359.7450 5.0881 359.9814 339.8774 357.4007 14.6036 319.0413 59.9537 338.5369 9.5531 357.1724 326.7817 89.4883 356.6696 347.5296 26.5206 355.8341 342.4573 45.6403 48.5934 4.9902 340.8196 354.6052 31.1994 270.6275 354.4713 10.8410 356.7109 2.6984 358.7697 357.9251 6.1470 4.7451 352.9237 351.8694 13.0148 358.1101 5.3759 11.8646 6.0935 6.1355 12.2962 348.8524 344.5467 310.8535 
-17.7090 96.8616 173.6758 358.4238 357.0912 181.1908 357.2433 347.9989 0.0059 2.9982 10.7569 0.0120 357.3418 359.4364 359.9583 359.7482 5.1132 359.9786 339.8956 357.3934 14.6021 318.9994 59.9548 338.5605 9.5702 357.1351 326.7868 89.5023 356.6748 347.4931 26.5113 355.8176 342.4641 45.6695 48.6240 4.9823 340.7832 354.5887 31.1933 270.7097 354.4635 10.8677 356.6945 2.6826 358.7573 357.9284 6.1482 4.7403 352.9914 351.8804 13.0480 358.0923 5.3450 11.8832 6.1094 6.1569 12.2700 348.8831 344.5161 310.8530 
-17.7301 96.8581 173.6690 358.4264 357.0639 181.1912 357.2332 347.9998 0.0040 2.9943 10.7852 0.0099 357.3745 359.4193 359.9524 359.6816 5.1781 359.9816 339.9012 357.3928 14.5995 318.9726 59.9362 338.5808 9.5628 357.1309 326.7780 89.5168 356.6634 347.4942 26.5120 355.8362 342.4787 45.6641 48.6079 4.9866 340.8141 354.5790 31.2216 270.7575 354.4659 10.9420 356.6831 2.6528 358.7469 357.9273 6.1626 4.7448 352.8858 351.8596 13.0467 358.0810 5.3083 11.8862 6.1160 6.1831 12.2564 348.9013 344.4900 310.8558 
-17.7497 96.8541 173.6595 358.4304 357.0470 181.1844 357.2252 348.0121 0.0060 2.9879 10.8101 0.0110 357.4190 359.4034 359.9430 359.6001 5.2437 359.9809 339.9049 357.3977 14.5930 318.9680 59.9229 338.5844 9.5440 357.1271 326.7744 89.6157 356.6662 347.5180 26.5109 355.8424 342.4930 45.6684 48.6138 4.9853 340.8008 354.5773 31.2487 270.7829 354.4756 10.8989 356.6778 2.6406 358.7372 357.9171 6.1652 4.7566 352.7990 351.8506 13.0655 358.0711 5.2807 11.9121 6.1287 6.2096 12.2197 348.8654 344.5007 310.8655 
-17.7718 96.8494 173.6506 358.4342 357.0228 181.1809 357.2053 348.0185 0.0150 3.0033 10.8290 0.0137 357.4201 359.4287 359.9447 359.5961 5.2590 359.9757 339.9073 357.3811 14.5896 318.9917 59.9691 338.5477 9.5983 357.1349 326.7984 89.5481 356.6561 347.5428 26.4959 355.8368 342.5079 45.6871 48.6071 4.9658 340.7861 354.5649 31.2712 270.7487 354.4824 10.8928 356.6683 2.6186 358.7285 357.9133 6.1750 4.7572 352.9895 351.8558 13.0701 358.0570 5.2399 11.8856 6.1415 6.2524 12.2465 348.9008 344.4516 310.8541 
-17.7943 96.8482 173.6417 358.4392 356.9960 181.1687 357.1913 348.0153 0.0198 3.0041 10.8622 0.0201 357.4372 359.4269 359.9367 359.5847 5.3068 359.9688 339.8874 357.3985 14.5996 319.1295 59.9514 338.4217 9.5017 357.1631 326.8027 89.6105 356.6556 347.5032 26.5002 355.8629 342.5212 45.6804 48.5538 4.9738 340.8283 354.5954 31.2973 270.7765 354.4671 10.9473 356.6065 2.4749 358.7649 358.0140 6.4107 4.8310 352.9270 351.7304 12.9176 358.0418 5.1980 11.8717 6.1553 6.2880 12.2574 348.8808 344.4400 310.8581 
-17.8189 96.8445 173.6375 358.4405 356.9607 181.1595 357.1820 348.0183 0.0214 2.9925 10.8792 0.0280 357.4429 359.4436 359.9282 359.5992 5.3276 359.9561 339.8899 357.3880 14.5895 319.1441 59.9591 338.4036 9.5436 357.1494 326.8115 89.5458 356.6439 347.4762 26.4964 355.8546 342.5240 45.6831 48.5662 4.9912 340.8044 354.5747 31.2930 270.8329 354.4904 10.9342 356.5747 2.4044 358.7573 358.0423 6.4876 4.8539 352.9643 351.7025 12.9149 358.0202 5.1401 11.8555 6.1721 6.3353 12.2735 348.9141 344.4005 310.8650 
-17.8429 96.8410 173.6334 358.4448 356.9245 181.1520 357.1660 348.0187 0.0261 2.9931 10.9048 0.0346 357.4715 359.4294 359.9158 359.5690 5.3872 359.9458 339.8863 357.4003 14.5689 319.1341 59.9301 338.4285 9.5336 357.1551 326.7903 89.4542 356.6387 347.3951 26.4865 355.8498 342.5301 45.6881 48.5680 5.0015 340.7928 354.5823 31.3043 270.8608 354.5047 10.9220 356.5642 2.3679 358.7419 358.0405 6.4951 4.8404 352.9478 351.6765 12.9179 358.0017 5.0749 11.8131 6.1919 6.3952 12.3006 348.9167 344.3690 310.8745 
-17.8669 96.8380 173.6282 358.4457 356.8960 181.1424 357.1429 348.0253 0.0310 2.9984 10.9346 0.0406 357.5161 359.4115 359.9002 359.5167 5.4568 359.9414 339.8884 357.4041 14.5654 319.1725 59.9309 338.3851 9.5581 357.1558 326.7863 89.3658 356.6247 347.3462 26.4796 355.8646 342.5332 45.6777 48.5484 5.0168 340.8148 354.5721 31.3756 271.1455 354.3976 10.4129 356.5503 2.3413 358.7127 358.0351 6.4985 4.8636 352.9740 351.6736 12.9299 357.9816 5.0227 11.7655 6.2056 6.4470 12.3378 348.8986 344.3534 310.8827 
-17.8903 96.8343 173.6249 358.4492 356.8585 181.1366 357.1333 348.0265 0.0357 2.9826 10.9622 0.0459 357.5585 359.3901 359.8883 359.4759 5.5343 359.9205 340.0233 357.4057 14.5962 318.9709 60.1821 338.2553 9.8970 357.0297 327.1421 88.9492 356.4681 347.2578 26.4714 355.8798 342.5239 45.6709 48.5893 5.0717 340.7952 354.5892 31.3357 270.8680 354.5040 10.8004 356.5384 2.2972 358.6993 358.0303 6.5176 4.8715 352.9691 351.6575 12.9230 357.9653 4.9612 11.7400 6.2261 6.4920 12.3277 348.9100 344.3318 310.8988 
-17.9164 96.8305 173.6208 358.4562 356.8325 181.1250 357.1159 348.0378 0.0461 2.9895 10.9976 0.0586 358.1005 358.9741 359.9180 358.5722 6.3076 0.0084 340.0117 357.4221 14.6013 319.0484 60.1649 338.1870 9.8498 357.0766 327.1180 88.9950 356.4777 347.2943 26.4504 355.8643 342.5131 45.6502 48.6662 5.1223 340.7119 354.5479 31.3520 271.2083 354.3460 10.1771 356.5285 2.2712 358.6722 358.0280 6.5273 4.8665 352.8097 351.6207 12.9354 357.9477 4.9064 11.7343 6.2479 6.5466 12.3521 348.9193 344.2967 310.8851 
-17.9425 96.8255 173.6199 358.4631 356.7938 181.1190 357.0936 348.0469 0.0521 3.0003 11.0172 0.0654 358.3359 358.8144 359.9188 358.1996 6.6423 0.0396 340.0073 357.4075 14.6068 319.1198 60.1826 338.1100 9.8913 357.0762 327.1123 89.0504 356.4882 347.3778 26.4444 355.8544 342.4993 45.6068 48.7069 5.1568 340.7152 354.5544 31.3705 271.2397 354.3488 10.1533 356.5195 2.2334 358.6487 358.0208 6.5290 4.8583 352.9361 351.6269 12.9629 357.9297 4.8290 11.6816 6.2695 6.6242 12.3980 348.9006 344.2759 310.8845 
-17.9683 96.8205 173.6205 358.4708 356.7539 181.1147 357.0716 348.0568 0.0594 3.0123 11.0376 0.0700 358.1474 358.9704 359.8764 358.5509 6.4116 359.9789 339.9987 357.4062 14.6270 319.2535 60.2108 337.9692 9.8703 357.0820 327.1005 89.3402 356.5148 347.5839 26.4386 355.8607 342.4977 45.5907 48.7120 5.1663 340.7473 354.5398 31.4018 271.2494 354.3638 10.1841 356.5094 2.1888 358.6262 358.0185 6.5352 4.8752 353.0757 351.6331 12.9536 357.9124 4.7500 11.6558 6.2943 6.6993 12.4195 348.9058 344.2406 310.8867 
-17.9970 96.8170 173.6166 358.4748 356.7220 181.1070 357.0486 348.0635 0.0719 3.0201 11.0733 0.0810 357.7823 359.2668 359.8170 359.2119 5.9223 359.8698 339.9930 357.4083 14.6270 319.3284 60.2248 337.8926 9.8833 357.0782 327.0842 89.5383 356.5302 347.7500 26.4136 355.8615 342.5054 45.6277 48.7228 5.1744 340.7054 354.5145 31.3956 271.3036 354.3091 10.1554 356.4904 2.1577 358.6021 358.0209 6.5397 4.9031 353.0576 351.6169 12.9382 357.8883 4.6874 11.6431 6.3248 6.7573 12.4237 348.9375 344.1926 310.8888 
-18.0246 96.8102 173.6277 358.4793 356.6652 181.1024 357.0238 348.0676 0.0737 3.0271 11.0992 0.0893 358.3851 358.7794 359.8531 358.2101 6.8025 359.9640 339.9899 357.4160 14.6044 319.3516 60.1864 337.8836 9.8837 357.0874 327.0364 89.5909 356.5533 347.7739 26.4028 355.8813 342.4896 45.6123 48.7356 5.2376 340.6746 354.5049 31.4210 271.5968 354.1555 9.7343 356.4778 2.0825 358.6047 358.0148 6.5614 4.9017 352.8462 351.6179 12.9702 357.8684 4.5663 11.5684 6.3495 6.8694 12.4669 348.9032 344.1751 310.9065 
-18.0516 96.8036 173.6343 358.4932 356.6138 181.1061 357.0203 348.0772 0.0750 3.0268 11.1149 0.0847 358.4309 358.7472 359.8357 358.1373 6.9087 359.9546 339.9955 357.4146 14.5892 319.2978 60.1393 337.9116 9.9029 357.0734 327.0080 89.6755 356.5763 347.8020 26.3950 355.8704 342.4931 45.6003 48.7551 5.2699 340.6281 354.5011 31.4002 271.6778 354.0840 9.7706 356.4755 2.0218 358.5959 358.0071 6.5704 4.8972 353.0573 351.6281 12.9283 357.8575 4.4646 11.5404 6.3769 6.9534 12.4864 348.9034 344.1467 310.9032 
-18.0813 96.7984 173.6391 358.5023 356.5650 181.1005 357.0008 348.0790 0.0827 3.0403 11.1514 0.0942 358.4577 358.7404 359.8095 358.1037 6.9531 359.9282 339.9868 357.3999 14.5867 319.3523 60.1400 337.8548 9.9048 357.0544 326.9888 89.7348 356.6024 347.8430 26.3790 355.8683 342.5121 45.6149 48.7256 5.2648 340.6410 354.5138 31.4293 271.5340 354.2120 9.9992 356.4703 1.9669 358.5905 357.9921 6.5765 4.8839 353.1776 351.6398 12.9403 357.8384 4.3593 11.5156 6.4119 7.0513 12.4970 348.9140 344.1035 310.8988 
-18.1126 96.7947 173.6382 358.5109 356.5320 181.0943 356.9930 348.0942 0.0868 3.0344 11.1895 0.1038 358.4737 358.7340 359.7803 358.1000 6.9966 359.9048 339.9796 357.3959 14.6113 319.5195 60.1732 337.6799 9.8904 357.0630 326.9952 89.7661 356.6060 347.8979 26.3715 355.8783 342.5330 45.6417 48.6928 5.2558 340.6414 354.5222 31.4633 271.3853 354.3402 10.1767 356.4584 1.9306 358.5917 357.9895 6.5829 4.8982 353.1343 351.6390 12.9272 357.8242 4.2569 11.3678 6.4237 7.1992 12.6475 348.9122 344.0481 310.8883 
